<mxfile host="app.diagrams.net" modified="2024-02-13T18:21:56.651Z" agent="Mozilla/5.0 (Windows NT 10.0; Win64; x64) AppleWebKit/537.36 (KHTML, like Gecko) Chrome/121.0.0.0 Safari/537.36 Edg/121.0.0.0" etag="QNf7DQDht7rS62ww54ho" version="23.1.3" type="device">
  <diagram name="Страница — 1" id="fKBUCXl6949Xtr6X0akW">
    <mxGraphModel dx="828" dy="503" grid="1" gridSize="10" guides="1" tooltips="1" connect="1" arrows="1" fold="1" page="1" pageScale="1" pageWidth="827" pageHeight="1169" math="0" shadow="0">
      <root>
        <mxCell id="0" />
        <mxCell id="1" parent="0" />
        <mxCell id="wD-DXvXVYZgzZNdiQsJs-258" value="" style="edgeStyle=orthogonalEdgeStyle;rounded=0;orthogonalLoop=1;jettySize=auto;html=1;" edge="1" parent="1" source="qY3sZJ4gQ_pa9tfZXsVX-1" target="wD-DXvXVYZgzZNdiQsJs-4">
          <mxGeometry relative="1" as="geometry" />
        </mxCell>
        <mxCell id="qY3sZJ4gQ_pa9tfZXsVX-1" value="quickSort (list,&lt;br&gt;left, right, atr, dir)" style="strokeWidth=1;html=1;shape=mxgraph.flowchart.terminator;whiteSpace=wrap;" parent="1" vertex="1">
          <mxGeometry x="180" y="50" width="120" height="60" as="geometry" />
        </mxCell>
        <mxCell id="qY3sZJ4gQ_pa9tfZXsVX-28" value="&lt;span style=&quot;font-size: 20px;&quot;&gt;2&lt;/span&gt;" style="text;html=1;align=center;verticalAlign=middle;whiteSpace=wrap;rounded=0;" parent="1" vertex="1">
          <mxGeometry x="410" y="10" width="60" height="30" as="geometry" />
        </mxCell>
        <mxCell id="qY3sZJ4gQ_pa9tfZXsVX-29" value="&lt;span style=&quot;font-size: 20px;&quot;&gt;1&lt;/span&gt;" style="text;html=1;align=center;verticalAlign=middle;whiteSpace=wrap;rounded=0;" parent="1" vertex="1">
          <mxGeometry x="210" y="10" width="60" height="30" as="geometry" />
        </mxCell>
        <mxCell id="qY3sZJ4gQ_pa9tfZXsVX-31" value="&lt;span style=&quot;font-size: 20px;&quot;&gt;A&lt;/span&gt;" style="text;html=1;align=center;verticalAlign=middle;whiteSpace=wrap;rounded=0;" parent="1" vertex="1">
          <mxGeometry x="100" y="65" width="60" height="30" as="geometry" />
        </mxCell>
        <mxCell id="qY3sZJ4gQ_pa9tfZXsVX-32" value="&lt;span style=&quot;font-size: 20px;&quot;&gt;B&lt;/span&gt;" style="text;html=1;align=center;verticalAlign=middle;whiteSpace=wrap;rounded=0;" parent="1" vertex="1">
          <mxGeometry x="100" y="185" width="60" height="30" as="geometry" />
        </mxCell>
        <mxCell id="qY3sZJ4gQ_pa9tfZXsVX-33" value="&lt;span style=&quot;font-size: 20px;&quot;&gt;C&lt;/span&gt;" style="text;html=1;align=center;verticalAlign=middle;whiteSpace=wrap;rounded=0;" parent="1" vertex="1">
          <mxGeometry x="100" y="305" width="60" height="30" as="geometry" />
        </mxCell>
        <mxCell id="qY3sZJ4gQ_pa9tfZXsVX-34" value="&lt;span style=&quot;font-size: 20px;&quot;&gt;D&lt;/span&gt;" style="text;html=1;align=center;verticalAlign=middle;whiteSpace=wrap;rounded=0;" parent="1" vertex="1">
          <mxGeometry x="100" y="425" width="60" height="30" as="geometry" />
        </mxCell>
        <mxCell id="wD-DXvXVYZgzZNdiQsJs-260" value="" style="edgeStyle=orthogonalEdgeStyle;rounded=0;orthogonalLoop=1;jettySize=auto;html=1;" edge="1" parent="1" source="wD-DXvXVYZgzZNdiQsJs-4" target="wD-DXvXVYZgzZNdiQsJs-259">
          <mxGeometry relative="1" as="geometry" />
        </mxCell>
        <mxCell id="wD-DXvXVYZgzZNdiQsJs-262" value="" style="edgeStyle=orthogonalEdgeStyle;rounded=0;orthogonalLoop=1;jettySize=auto;html=1;" edge="1" parent="1" source="wD-DXvXVYZgzZNdiQsJs-4" target="wD-DXvXVYZgzZNdiQsJs-261">
          <mxGeometry relative="1" as="geometry" />
        </mxCell>
        <mxCell id="wD-DXvXVYZgzZNdiQsJs-4" value="left &amp;gt;= right?" style="rhombus;whiteSpace=wrap;html=1;" vertex="1" parent="1">
          <mxGeometry x="160" y="160" width="160" height="80" as="geometry" />
        </mxCell>
        <mxCell id="wD-DXvXVYZgzZNdiQsJs-49" value="&lt;font style=&quot;font-size: 20px;&quot;&gt;да&lt;/font&gt;" style="text;html=1;align=center;verticalAlign=middle;whiteSpace=wrap;rounded=0;" vertex="1" parent="1">
          <mxGeometry x="230" y="230" width="60" height="30" as="geometry" />
        </mxCell>
        <mxCell id="wD-DXvXVYZgzZNdiQsJs-52" value="&lt;font style=&quot;font-size: 20px;&quot;&gt;нет&lt;/font&gt;" style="text;html=1;align=center;verticalAlign=middle;whiteSpace=wrap;rounded=0;" vertex="1" parent="1">
          <mxGeometry x="300" y="170" width="60" height="30" as="geometry" />
        </mxCell>
        <mxCell id="wD-DXvXVYZgzZNdiQsJs-259" value="Конец" style="strokeWidth=1;html=1;shape=mxgraph.flowchart.terminator;whiteSpace=wrap;" vertex="1" parent="1">
          <mxGeometry x="180" y="410" width="120" height="60" as="geometry" />
        </mxCell>
        <mxCell id="wD-DXvXVYZgzZNdiQsJs-264" value="" style="edgeStyle=orthogonalEdgeStyle;rounded=0;orthogonalLoop=1;jettySize=auto;html=1;" edge="1" parent="1" source="wD-DXvXVYZgzZNdiQsJs-261" target="wD-DXvXVYZgzZNdiQsJs-263">
          <mxGeometry relative="1" as="geometry" />
        </mxCell>
        <mxCell id="wD-DXvXVYZgzZNdiQsJs-261" value="mid = partition(list, left, right, atr, dir)" style="rounded=0;whiteSpace=wrap;html=1;" vertex="1" parent="1">
          <mxGeometry x="380" y="170" width="120" height="60" as="geometry" />
        </mxCell>
        <mxCell id="wD-DXvXVYZgzZNdiQsJs-267" value="" style="edgeStyle=orthogonalEdgeStyle;rounded=0;orthogonalLoop=1;jettySize=auto;html=1;" edge="1" parent="1" source="wD-DXvXVYZgzZNdiQsJs-263" target="wD-DXvXVYZgzZNdiQsJs-259">
          <mxGeometry relative="1" as="geometry">
            <Array as="points">
              <mxPoint x="440" y="380" />
              <mxPoint x="240" y="380" />
            </Array>
          </mxGeometry>
        </mxCell>
        <mxCell id="wD-DXvXVYZgzZNdiQsJs-263" value="quickSort(list, left, mid-1, atr, dir)&lt;br&gt;quickSort(list, mid+1, right, atr, dir)" style="rounded=0;whiteSpace=wrap;html=1;" vertex="1" parent="1">
          <mxGeometry x="380" y="290" width="120" height="60" as="geometry" />
        </mxCell>
      </root>
    </mxGraphModel>
  </diagram>
</mxfile>
